<?xml version="1.0" encoding="UTF-8" standalone="no"?>
<!-- Created with Inkscape (http://www.inkscape.org/) -->

<svg
   xmlns:dc="http://purl.org/dc/elements/1.1/"
   xmlns:cc="http://creativecommons.org/ns#"
   xmlns:rdf="http://www.w3.org/1999/02/22-rdf-syntax-ns#"
   xmlns:svg="http://www.w3.org/2000/svg"
   xmlns="http://www.w3.org/2000/svg"
   xmlns:sodipodi="http://sodipodi.sourceforge.net/DTD/sodipodi-0.dtd"
   xmlns:inkscape="http://www.inkscape.org/namespaces/inkscape"
   viewBox="0 0 75.456673 26.440479"
   version="1.1"
   id="svg8"
   inkscape:version="0.92.0 r15299"
   sodipodi:docname="cdp.svg">
  <defs
     id="defs2">
	
	

	
	
	
	
	
	
	
	
	
	
	
	
	
	
	
	
	
	
	
	
	
	
	
	
	
	
	
</defs>
  <sodipodi:namedview
     id="base"
     pagecolor="#ffffff"
     bordercolor="#666666"
     borderopacity="1.0"
     inkscape:pageopacity="0.0"
     inkscape:pageshadow="2"
     inkscape:zoom="3.1875086"
     inkscape:cx="140.7055"
     inkscape:cy="48.076499"
     inkscape:document-units="mm"
     inkscape:current-layer="layer1"
     showgrid="false"
     fit-margin-top="0"
     fit-margin-left="0"
     fit-margin-right="0"
     fit-margin-bottom="0"
     inkscape:window-width="1280"
     inkscape:window-height="744"
     inkscape:window-x="-4"
     inkscape:window-y="-4"
     inkscape:window-maximized="1" />
  <metadata
     id="metadata5">
    <rdf:RDF>
      <cc:Work
         rdf:about="">
        <dc:format>image/svg+xml</dc:format>
        <dc:type
           rdf:resource="http://purl.org/dc/dcmitype/StillImage" />
        <dc:title></dc:title>
      </cc:Work>
    </rdf:RDF>
  </metadata>
  <g
     inkscape:label="Layer 1"
     inkscape:groupmode="layer"
     id="layer1"
     transform="translate(-269.83637,-248.02042)">
    <polygon
       style="fill:#b42e34"
       points="88.974,50.537 40.898,2.462 88.974,2.462 "
       id="polygon12"
       transform="matrix(0.26458333,0,0,0.26458333,269.69106,247.86901)" />
    <polygon
       style="fill:#b42e34"
       points="88.974,98.615 40.898,50.537 88.974,50.537 "
       id="polygon14"
       transform="matrix(0.26458333,0,0,0.26458333,269.69106,247.86901)" />
    <polygon
       style="fill:#d11242"
       points="40.899,89.002 2.439,50.537 40.899,50.537 "
       id="polygon16"
       transform="matrix(0.26458333,0,0,0.26458333,269.69106,247.86901)" />
    <polygon
       style="fill:#d11242"
       points="40.895,50.54 12.049,21.693 40.895,21.693 "
       id="polygon18"
       transform="matrix(0.26458333,0,0,0.26458333,269.69106,247.86901)" />
    <polygon
       style="fill:#d11242"
       points="108.205,69.77 88.974,50.537 108.205,50.537 "
       id="polygon20"
       transform="matrix(0.26458333,0,0,0.26458333,269.69106,247.86901)" />
    <path
       style="fill:#b42e34;stroke-width:0.26458332"
       inkscape:connector-curvature="0"
       d="m 307.87361,273.33463 c 2.95592,0 4.70773,-1.05172 6.28491,-2.73738 l -2.14577,-2.16773 c -1.20491,1.09537 -2.277,1.79519 -4.02907,1.79519 -2.62811,0 -4.44553,-2.19048 -4.44553,-4.81726 v -0.0434 c 0,-2.6281 1.86213,-4.77361 4.44553,-4.77361 1.5322,0 2.73685,0.65696 3.919,1.72932 l 2.14683,-2.47439 c -1.42372,-1.40176 -3.15383,-2.36458 -6.04467,-2.36458 -4.70746,0 -7.992,3.56897 -7.992,7.92639 v 0.0439 c 2.6e-4,4.40161 3.35068,7.88353 7.86077,7.88353 m 8.32062,-0.263 h 5.97879 c 4.81674,0 8.14625,-3.35015 8.14625,-7.66418 v -0.0434 c 0,-4.31403 -3.32951,-7.62026 -8.14625,-7.62026 h -7.09004 v 3.07128 l 1.11125,-0.0175 z m 3.37185,-3.04324 v -9.24136 h 2.60694 c 2.75907,0 4.61989,1.905 4.61989,4.62042 v 0.0439 c 0,2.71515 -1.86082,4.57702 -4.61989,4.57702 z m 13.09581,3.04324 h 3.37132 v -4.59819 h 2.56329 c 3.43614,0 6.19654,-1.83965 6.19654,-5.38586 v -0.045 c 0,-3.13055 -2.21165,-5.29828 -5.87031,-5.29828 h -7.35357 v 3.05382 l 1.09273,-0.0228 z m 3.37132,-7.59804 v -4.68656 h 2.60615 c 1.68619,0 2.73764,0.80962 2.73764,2.32119 v 0.0429 c 0,1.31524 -0.98531,2.32225 -2.67255,2.32225 h -2.67124 z"
       id="path78" />
    <path
       id="path80"
       d="m 343.29708,257.84671 h -0.30241 v -0.1016 h 0.72601 v 0.1016 h -0.30295 v 0.80619 h -0.12091 v -0.80619 z"
       inkscape:connector-curvature="0"
       style="fill:#b42e34;stroke-width:0.26458332" />
    <path
       id="path82"
       d="m 343.82334,257.74511 h 0.16536 l 0.28628,0.76306 0.28734,-0.76306 h 0.16537 v 0.90805 h -0.1151 v -0.75512 h -0.003 l -0.28311,0.75512 h -0.10371 l -0.28284,-0.75512 h -0.003 v 0.75512 h -0.11509 v -0.90805 z"
       inkscape:connector-curvature="0"
       style="fill:#b42e34;stroke-width:0.26458332" />
  </g>
</svg>
