<svg width="794" height="797" viewBox="0 0 794 797" fill="none" xmlns="http://www.w3.org/2000/svg">
<rect x="38" y="181" width="241" height="217" rx="16" fill="#E2F0D9"/>
<path d="M137.767 321V251.182H179.903V258.682H146.222V282.273H177.722V289.773H146.222V313.5H180.449V321H137.767Z" fill="#70AD47"/>
<g filter="url(#filter0_d_206_5)">
<path d="M101.326 427V412.455H110.104V414.017H103.087V418.932H109.65V420.494H103.087V425.438H110.218V427H101.326ZM114.728 420.438V427H113.052V416.091H114.671V417.795H114.813C115.069 417.241 115.457 416.796 115.978 416.46C116.499 416.119 117.171 415.949 117.995 415.949C118.733 415.949 119.38 416.1 119.934 416.403C120.488 416.702 120.919 417.156 121.226 417.767C121.534 418.373 121.688 419.14 121.688 420.068V427H120.012V420.182C120.012 419.325 119.789 418.657 119.344 418.179C118.899 417.696 118.288 417.455 117.512 417.455C116.977 417.455 116.499 417.571 116.077 417.803C115.661 418.035 115.331 418.373 115.09 418.818C114.849 419.263 114.728 419.803 114.728 420.438ZM133.281 416.091L129.247 427H127.542L123.508 416.091H125.326L128.338 424.784H128.451L131.463 416.091H133.281ZM135.493 427V416.091H137.169V427H135.493ZM136.345 414.273C136.019 414.273 135.737 414.161 135.5 413.939C135.268 413.716 135.152 413.449 135.152 413.136C135.152 412.824 135.268 412.556 135.5 412.334C135.737 412.111 136.019 412 136.345 412C136.672 412 136.951 412.111 137.183 412.334C137.42 412.556 137.539 412.824 137.539 413.136C137.539 413.449 137.42 413.716 137.183 413.939C136.951 414.161 136.672 414.273 136.345 414.273ZM140.239 427V416.091H141.858V417.739H141.972C142.171 417.199 142.531 416.761 143.052 416.425C143.573 416.089 144.16 415.92 144.813 415.92C144.936 415.92 145.09 415.923 145.275 415.928C145.459 415.932 145.599 415.939 145.694 415.949V417.653C145.637 417.639 145.507 417.618 145.303 417.589C145.104 417.556 144.894 417.54 144.671 417.54C144.141 417.54 143.667 417.651 143.251 417.874C142.839 418.091 142.512 418.394 142.27 418.783C142.034 419.166 141.915 419.604 141.915 420.097V427H140.239ZM151.78 427.227C150.796 427.227 149.931 426.993 149.188 426.524C148.449 426.055 147.872 425.4 147.455 424.557C147.043 423.714 146.837 422.729 146.837 421.602C146.837 420.466 147.043 419.474 147.455 418.626C147.872 417.779 148.449 417.121 149.188 416.652C149.931 416.183 150.796 415.949 151.78 415.949C152.765 415.949 153.627 416.183 154.366 416.652C155.109 417.121 155.687 417.779 156.099 418.626C156.515 419.474 156.724 420.466 156.724 421.602C156.724 422.729 156.515 423.714 156.099 424.557C155.687 425.4 155.109 426.055 154.366 426.524C153.627 426.993 152.765 427.227 151.78 427.227ZM151.78 425.722C152.528 425.722 153.144 425.53 153.627 425.146C154.11 424.763 154.467 424.259 154.699 423.634C154.931 423.009 155.047 422.331 155.047 421.602C155.047 420.873 154.931 420.194 154.699 419.564C154.467 418.934 154.11 418.425 153.627 418.037C153.144 417.649 152.528 417.455 151.78 417.455C151.032 417.455 150.417 417.649 149.934 418.037C149.451 418.425 149.093 418.934 148.861 419.564C148.629 420.194 148.513 420.873 148.513 421.602C148.513 422.331 148.629 423.009 148.861 423.634C149.093 424.259 149.451 424.763 149.934 425.146C150.417 425.53 151.032 425.722 151.78 425.722ZM160.958 420.438V427H159.282V416.091H160.901V417.795H161.044C161.299 417.241 161.687 416.796 162.208 416.46C162.729 416.119 163.401 415.949 164.225 415.949C164.964 415.949 165.61 416.1 166.164 416.403C166.718 416.702 167.149 417.156 167.457 417.767C167.765 418.373 167.919 419.14 167.919 420.068V427H166.242V420.182C166.242 419.325 166.02 418.657 165.575 418.179C165.13 417.696 164.519 417.455 163.742 417.455C163.207 417.455 162.729 417.571 162.308 417.803C161.891 418.035 161.562 418.373 161.32 418.818C161.079 419.263 160.958 419.803 160.958 420.438ZM170.981 427V416.091H172.601V417.795H172.743C172.97 417.213 173.337 416.761 173.844 416.439C174.35 416.112 174.959 415.949 175.669 415.949C176.389 415.949 176.988 416.112 177.466 416.439C177.949 416.761 178.325 417.213 178.595 417.795H178.709C178.988 417.232 179.407 416.785 179.966 416.453C180.524 416.117 181.194 415.949 181.976 415.949C182.951 415.949 183.749 416.254 184.369 416.865C184.989 417.471 185.3 418.416 185.3 419.699V427H183.623V419.699C183.623 418.894 183.403 418.319 182.963 417.973C182.523 417.627 182.004 417.455 181.407 417.455C180.64 417.455 180.046 417.687 179.625 418.151C179.203 418.61 178.993 419.192 178.993 419.898V427H177.288V419.528C177.288 418.908 177.087 418.409 176.684 418.03C176.282 417.646 175.764 417.455 175.129 417.455C174.693 417.455 174.286 417.571 173.907 417.803C173.533 418.035 173.23 418.357 172.998 418.768C172.771 419.176 172.657 419.647 172.657 420.182V427H170.981ZM192.938 427.227C191.887 427.227 190.98 426.995 190.218 426.531C189.46 426.062 188.876 425.409 188.464 424.571C188.056 423.728 187.853 422.748 187.853 421.631C187.853 420.513 188.056 419.528 188.464 418.676C188.876 417.819 189.448 417.152 190.182 416.673C190.921 416.19 191.783 415.949 192.768 415.949C193.336 415.949 193.897 416.044 194.451 416.233C195.005 416.422 195.509 416.73 195.964 417.156C196.418 417.578 196.78 418.136 197.05 418.832C197.32 419.528 197.455 420.385 197.455 421.403V422.114H189.046V420.665H195.751C195.751 420.049 195.627 419.5 195.381 419.017C195.14 418.534 194.794 418.153 194.344 417.874C193.899 417.594 193.374 417.455 192.768 417.455C192.1 417.455 191.522 417.62 191.035 417.952C190.552 418.278 190.18 418.705 189.92 419.23C189.659 419.756 189.529 420.319 189.529 420.92V421.886C189.529 422.71 189.671 423.409 189.955 423.982C190.244 424.55 190.644 424.983 191.155 425.281C191.667 425.575 192.261 425.722 192.938 425.722C193.378 425.722 193.776 425.66 194.131 425.537C194.491 425.409 194.801 425.22 195.062 424.969C195.322 424.713 195.523 424.396 195.665 424.017L197.285 424.472C197.114 425.021 196.828 425.504 196.425 425.92C196.023 426.332 195.526 426.654 194.934 426.886C194.342 427.114 193.677 427.227 192.938 427.227ZM201.681 420.438V427H200.005V416.091H201.624V417.795H201.766C202.022 417.241 202.41 416.796 202.931 416.46C203.452 416.119 204.124 415.949 204.948 415.949C205.687 415.949 206.333 416.1 206.887 416.403C207.441 416.702 207.872 417.156 208.18 417.767C208.487 418.373 208.641 419.14 208.641 420.068V427H206.965V420.182C206.965 419.325 206.742 418.657 206.297 418.179C205.852 417.696 205.242 417.455 204.465 417.455C203.93 417.455 203.452 417.571 203.03 417.803C202.614 418.035 202.285 418.373 202.043 418.818C201.802 419.263 201.681 419.803 201.681 420.438ZM216.448 416.091V417.511H210.795V416.091H216.448ZM212.443 413.477H214.119V423.875C214.119 424.348 214.187 424.704 214.325 424.94C214.467 425.172 214.647 425.329 214.865 425.409C215.087 425.485 215.321 425.523 215.568 425.523C215.752 425.523 215.904 425.513 216.022 425.494C216.141 425.471 216.235 425.452 216.306 425.438L216.647 426.943C216.534 426.986 216.375 427.028 216.171 427.071C215.968 427.118 215.71 427.142 215.397 427.142C214.924 427.142 214.46 427.04 214.005 426.837C213.555 426.633 213.181 426.323 212.883 425.906C212.589 425.49 212.443 424.964 212.443 424.33V413.477Z" fill="#385723"/>
</g>
<defs>
<filter id="filter0_d_206_5" x="97.3258" y="412" width="123.321" height="23.2273" filterUnits="userSpaceOnUse" color-interpolation-filters="sRGB">
<feFlood flood-opacity="0" result="BackgroundImageFix"/>
<feColorMatrix in="SourceAlpha" type="matrix" values="0 0 0 0 0 0 0 0 0 0 0 0 0 0 0 0 0 0 127 0" result="hardAlpha"/>
<feOffset dy="4"/>
<feGaussianBlur stdDeviation="2"/>
<feComposite in2="hardAlpha" operator="out"/>
<feColorMatrix type="matrix" values="0 0 0 0 0 0 0 0 0 0 0 0 0 0 0 0 0 0 0.25 0"/>
<feBlend mode="normal" in2="BackgroundImageFix" result="effect1_dropShadow_206_5"/>
<feBlend mode="normal" in="SourceGraphic" in2="effect1_dropShadow_206_5" result="shape"/>
</filter>
</defs>
</svg>
