<?xml version="1.0" encoding="utf-8"?>
<!-- Generator: Adobe Illustrator 19.2.1, SVG Export Plug-In . SVG Version: 6.00 Build 0)  -->
<svg version="1.1" id="Layer_1" xmlns="http://www.w3.org/2000/svg" xmlns:xlink="http://www.w3.org/1999/xlink" x="0px" y="0px"
	 viewBox="0 0 200 200" enable-background="new 0 0 200 200" xml:space="preserve">

<g>
	<path fill="#541832" d="M100,200c55.2,0,100-44.8,100-100S155.2,0,100,0S0,44.8,0,100S44.8,200,100,200"/>
</g>
<path fill="#FFFFFF" d="M52.9,121.3c3.3-1.7,4.9-4.6,4.9-8.3c0-3.8-2.8-8.8-10.2-8.8H38v29.4h5.3V122h3.9l6.2,11.6h6.1L52.9,121.3z
	 M47.7,117.4h-4.3v-8.5h4.3c2.7,0,4.5,1.8,4.5,4.3C52.2,115.5,50.5,117.4,47.7,117.4z"/>
<path fill="#FFFFFF" d="M61.8,112.9H67v12.5c0,2.7,1.6,4.2,3.9,4.2c2.9,0,5-2.4,5-5.5v-11.2h5.2v20.7H76v-2.3
	c-1.1,1.2-3,2.8-6.3,2.8c-5.2,0-7.9-3.3-7.9-8.6L61.8,112.9L61.8,112.9z"/>
<polygon fill="#FFFFFF" points="74.4,77.7 62.4,77.7 62.4,69.9 75.4,69.9 75.4,65 56.8,65 56.8,94.4 62.4,94.4 62.4,82.6 74.4,82.6 
	"/>
<polygon fill="#FFFFFF" points="86,94.4 91.6,94.4 91.6,69.9 99.4,69.9 99.4,65 78.2,65 78.2,69.9 86,69.9 "/>
<polygon fill="#FFFFFF" points="131.6,81.9 143.5,81.9 143.5,77 131.6,77 131.6,69.9 144.9,69.9 144.9,65 126,65 126,94.4 
	144.9,94.4 144.9,89.5 131.6,89.5 "/>
<rect x="148.2" y="104.2" fill="#FFFFFF" width="5.2" height="29.4"/>
<rect x="157.6" y="104.2" fill="#FFFFFF" width="5.2" height="29.4"/>
<path fill="#FFFFFF" d="M92.7,134.3c-5.1,0-8.3-2.2-8.5-2.4l2.1-3.8c0.5,0.2,3.1,1.8,5.9,1.8c2.7,0,3.7-1,3.7-2c0-1.4-1.7-2-5.3-3.2
	c-2-0.7-5.5-1.9-5.5-5.9s3.5-6.6,8.8-6.6c4.8,0,7.4,1.9,7.4,1.9l-2,3.7c-1.3-0.7-3.1-1.5-5.3-1.5c-2.3,0-3.3,1.1-3.3,1.9
	c0,1.4,2,2.2,4.6,2.8c3.1,0.8,6.4,2.3,6.4,6.5C101.6,131.7,98.2,134.3,92.7,134.3z"/>
<path fill="#FFFFFF" d="M112.7,134.3c-5.1,0-8.3-2.2-8.5-2.4l2.1-3.8c0.5,0.2,3.1,1.8,5.9,1.8c2.7,0,3.7-1,3.7-2
	c0-1.4-1.7-2-5.3-3.2c-2-0.7-5.5-1.9-5.5-5.9s3.5-6.6,8.8-6.6c4.8,0,7.4,1.9,7.4,1.9l-2,3.7c-1.3-0.7-3.1-1.5-5.3-1.5
	c-2.3,0-3.2,1.1-3.2,1.9c0,1.4,2,2.2,4.6,2.8c3.1,0.8,6.4,2.3,6.4,6.5C121.6,131.7,118.2,134.3,112.7,134.3z"/>
<path fill="#FFFFFF" d="M145.1,123.6c0-5.2-2.7-11.5-10.2-11.5c-6.2,0-10.5,4.7-10.5,10.8c0,6.7,4.3,11.3,10.9,11.3
	c5.3,0,8.7-2.8,8.8-2.9l-1.9-3.8c-1.9,1.2-4.1,2.2-6.9,2.2c-2.7,0-5.7-2-5.7-5h15.5C145.1,124.7,145.1,123.6,145.1,123.6z
	 M129.5,121.1c0-2.1,1.9-4.5,5.3-4.5c3.2,0,4.8,2.4,4.8,4.5H129.5z"/>
<path fill="#FFFFFF" d="M111.2,95.3c-6.3,0-9.7-3.1-10-3.4l2.8-4.1c0.6,0.4,3.4,2.4,6.9,2.4c3.2,0,5.6-1.4,5.6-3.7
	c0-2.2-1.8-3.1-7-5c-4.4-1.6-7.5-3.6-7.5-8.4c0-5.3,4.5-8.8,10.5-8.8c5.8,0,9.1,3,9.3,3.3l-2.8,3.9c-0.4-0.3-3.2-2.2-6.6-2.2
	c-2.6,0-4.7,1.4-4.7,3.3c0,2,1.5,3.2,6.2,4.8s8.5,3.5,8.5,8.8C122.4,91.7,117.7,95.3,111.2,95.3z"/>
</svg>
