<?xml version="1.0" encoding="utf-8"?>
<!-- Generator: Adobe Illustrator 19.2.1, SVG Export Plug-In . SVG Version: 6.00 Build 0)  -->
<svg version="1.1" id="layer" xmlns="http://www.w3.org/2000/svg" xmlns:xlink="http://www.w3.org/1999/xlink" x="0px" y="0px"
	 viewBox="0 0 652 652" style="enable-background:new 0 0 652 652;" xml:space="preserve">
<style type="text/css">
	.st0{fill:#1158A6;}
	.st1{fill:#FFFFFF;}
</style>
<path class="st0" d="M576,326c0,138.1-111.9,250-250,250S76,464.1,76,326C76,188,188,76,326,76S576,188,576,326z"/>
<path class="st1" d="M519,264.5h24.1v123H519V264.5z M337.3,355.1h16.5c-6.6,7.3-16,11.8-27.8,11.8c-22.6,0-40.9-18.3-40.9-40.9
	c0-22.6,18.3-40.9,40.9-40.9c17.6,0,32.6,11.1,38.4,26.8h25c-6.5-29.1-32.4-50.8-63.4-50.8c-35.9,0-65,29.1-65,65
	c0,35.9,29.1,65,65,65c16.9,0,30.4-5.9,40.8-15.7v12.2h22.6v-55h-52.1L337.3,355.1L337.3,355.1z M456,288.6h-24v33.6h24
	c9.3,0,16.8-7.5,16.8-16.8C472.8,296.1,465.3,288.6,456,288.6L456,288.6z M446.2,346.2H432v41.3h-24.1v-123H456
	c22.6,0,40.8,18.3,40.8,40.9c0,16.5-9.8,30.7-23.9,37.2l27.6,45h-29L446.2,346.2L446.2,346.2z"/>
</svg>
