<svg width="794" height="797" viewBox="0 0 794 797" fill="none" xmlns="http://www.w3.org/2000/svg">
<rect x="38" y="181" width="241" height="217" rx="16" fill="#DEEBF7"/>
<path d="M178.51 273C177.76 270.705 176.771 268.648 175.544 266.83C174.339 264.989 172.896 263.42 171.214 262.125C169.555 260.83 167.669 259.841 165.555 259.159C163.442 258.477 161.124 258.136 158.601 258.136C154.464 258.136 150.703 259.205 147.317 261.341C143.93 263.477 141.237 266.625 139.237 270.784C137.237 274.943 136.237 280.045 136.237 286.091C136.237 292.136 137.249 297.239 139.271 301.398C141.294 305.557 144.033 308.705 147.487 310.841C150.942 312.977 154.828 314.045 159.146 314.045C163.146 314.045 166.669 313.193 169.714 311.489C172.783 309.761 175.169 307.33 176.874 304.193C178.601 301.034 179.464 297.318 179.464 293.045L182.055 293.591H161.055V286.091H187.646V293.591C187.646 299.341 186.419 304.341 183.964 308.591C181.533 312.841 178.169 316.136 173.874 318.477C169.601 320.795 164.692 321.955 159.146 321.955C152.964 321.955 147.533 320.5 142.851 317.591C138.192 314.682 134.555 310.545 131.942 305.182C129.351 299.818 128.055 293.455 128.055 286.091C128.055 280.568 128.794 275.602 130.271 271.193C131.771 266.761 133.885 262.989 136.612 259.875C139.339 256.761 142.567 254.375 146.294 252.716C150.021 251.057 154.124 250.227 158.601 250.227C162.283 250.227 165.714 250.784 168.896 251.898C172.101 252.989 174.953 254.545 177.453 256.568C179.976 258.568 182.078 260.966 183.76 263.761C185.442 266.534 186.601 269.614 187.237 273H178.51Z" fill="#4472C4"/>
<g filter="url(#filter0_d_206_5)">
<path d="M113.349 419C113.193 418.522 112.987 418.093 112.731 417.714C112.48 417.331 112.18 417.004 111.829 416.734C111.484 416.464 111.091 416.259 110.65 416.116C110.21 415.974 109.727 415.903 109.201 415.903C108.34 415.903 107.556 416.126 106.85 416.571C106.145 417.016 105.584 417.672 105.167 418.538C104.751 419.405 104.542 420.468 104.542 421.727C104.542 422.987 104.753 424.05 105.174 424.916C105.596 425.783 106.166 426.438 106.886 426.884C107.606 427.329 108.415 427.551 109.315 427.551C110.148 427.551 110.882 427.374 111.517 427.018C112.156 426.659 112.653 426.152 113.008 425.499C113.368 424.84 113.548 424.066 113.548 423.176L114.088 423.29H109.713V421.727H115.252V423.29C115.252 424.488 114.997 425.529 114.485 426.415C113.979 427.3 113.278 427.987 112.383 428.474C111.493 428.957 110.47 429.199 109.315 429.199C108.027 429.199 106.895 428.896 105.92 428.29C104.949 427.684 104.192 426.822 103.647 425.705C103.108 424.587 102.838 423.261 102.838 421.727C102.838 420.577 102.992 419.542 103.299 418.624C103.612 417.7 104.052 416.914 104.62 416.266C105.189 415.617 105.861 415.12 106.637 414.774C107.414 414.429 108.269 414.256 109.201 414.256C109.968 414.256 110.683 414.372 111.346 414.604C112.014 414.831 112.608 415.155 113.129 415.577C113.654 415.993 114.092 416.493 114.443 417.075C114.793 417.653 115.035 418.295 115.167 419H113.349ZM122.474 429.227C121.489 429.227 120.625 428.993 119.881 428.524C119.143 428.055 118.565 427.4 118.148 426.557C117.737 425.714 117.531 424.729 117.531 423.602C117.531 422.466 117.737 421.474 118.148 420.626C118.565 419.779 119.143 419.121 119.881 418.652C120.625 418.183 121.489 417.949 122.474 417.949C123.459 417.949 124.32 418.183 125.059 418.652C125.802 419.121 126.38 419.779 126.792 420.626C127.209 421.474 127.417 422.466 127.417 423.602C127.417 424.729 127.209 425.714 126.792 426.557C126.38 427.4 125.802 428.055 125.059 428.524C124.32 428.993 123.459 429.227 122.474 429.227ZM122.474 427.722C123.222 427.722 123.837 427.53 124.32 427.146C124.803 426.763 125.161 426.259 125.393 425.634C125.625 425.009 125.741 424.331 125.741 423.602C125.741 422.873 125.625 422.194 125.393 421.564C125.161 420.934 124.803 420.425 124.32 420.037C123.837 419.649 123.222 419.455 122.474 419.455C121.726 419.455 121.11 419.649 120.627 420.037C120.144 420.425 119.787 420.934 119.555 421.564C119.323 422.194 119.207 422.873 119.207 423.602C119.207 424.331 119.323 425.009 119.555 425.634C119.787 426.259 120.144 426.763 120.627 427.146C121.11 427.53 121.726 427.722 122.474 427.722ZM138.505 418.091L134.471 429H132.767L128.733 418.091H130.551L133.562 426.784H133.676L136.687 418.091H138.505ZM144.901 429.227C143.85 429.227 142.943 428.995 142.181 428.531C141.423 428.062 140.838 427.409 140.426 426.571C140.019 425.728 139.816 424.748 139.816 423.631C139.816 422.513 140.019 421.528 140.426 420.676C140.838 419.819 141.411 419.152 142.145 418.673C142.884 418.19 143.746 417.949 144.73 417.949C145.299 417.949 145.86 418.044 146.414 418.233C146.968 418.422 147.472 418.73 147.926 419.156C148.381 419.578 148.743 420.136 149.013 420.832C149.283 421.528 149.418 422.385 149.418 423.403V424.114H141.009V422.665H147.713C147.713 422.049 147.59 421.5 147.344 421.017C147.103 420.534 146.757 420.153 146.307 419.874C145.862 419.594 145.337 419.455 144.73 419.455C144.063 419.455 143.485 419.62 142.998 419.952C142.515 420.278 142.143 420.705 141.882 421.23C141.622 421.756 141.492 422.319 141.492 422.92V423.886C141.492 424.71 141.634 425.409 141.918 425.982C142.207 426.55 142.607 426.983 143.118 427.281C143.63 427.575 144.224 427.722 144.901 427.722C145.341 427.722 145.739 427.66 146.094 427.537C146.454 427.409 146.764 427.22 147.025 426.969C147.285 426.713 147.486 426.396 147.628 426.017L149.248 426.472C149.077 427.021 148.791 427.504 148.388 427.92C147.986 428.332 147.489 428.654 146.897 428.886C146.305 429.114 145.64 429.227 144.901 429.227ZM151.968 429V418.091H153.587V419.739H153.701C153.9 419.199 154.259 418.761 154.78 418.425C155.301 418.089 155.888 417.92 156.542 417.92C156.665 417.92 156.819 417.923 157.003 417.928C157.188 417.932 157.328 417.939 157.422 417.949V419.653C157.365 419.639 157.235 419.618 157.032 419.589C156.833 419.556 156.622 419.54 156.4 419.54C155.869 419.54 155.396 419.651 154.979 419.874C154.567 420.091 154.24 420.394 153.999 420.783C153.762 421.166 153.644 421.604 153.644 422.097V429H151.968ZM161.085 422.438V429H159.409V418.091H161.028V419.795H161.17C161.426 419.241 161.814 418.796 162.335 418.46C162.856 418.119 163.528 417.949 164.352 417.949C165.091 417.949 165.737 418.1 166.291 418.403C166.845 418.702 167.276 419.156 167.584 419.767C167.892 420.373 168.045 421.14 168.045 422.068V429H166.369V422.182C166.369 421.325 166.147 420.657 165.702 420.179C165.257 419.696 164.646 419.455 163.869 419.455C163.334 419.455 162.856 419.571 162.435 419.803C162.018 420.035 161.689 420.373 161.447 420.818C161.206 421.263 161.085 421.803 161.085 422.438ZM174.319 429.256C173.627 429.256 173 429.125 172.436 428.865C171.873 428.6 171.426 428.219 171.094 427.722C170.763 427.22 170.597 426.614 170.597 425.903C170.597 425.278 170.72 424.772 170.966 424.384C171.212 423.991 171.542 423.683 171.953 423.46C172.365 423.238 172.82 423.072 173.317 422.963C173.819 422.849 174.323 422.759 174.83 422.693C175.493 422.608 176.03 422.544 176.442 422.501C176.859 422.454 177.162 422.376 177.351 422.267C177.545 422.158 177.642 421.969 177.642 421.699V421.642C177.642 420.941 177.451 420.397 177.067 420.009C176.688 419.62 176.113 419.426 175.341 419.426C174.541 419.426 173.914 419.601 173.459 419.952C173.005 420.302 172.685 420.676 172.5 421.074L170.909 420.506C171.194 419.843 171.572 419.327 172.046 418.957C172.524 418.583 173.045 418.323 173.608 418.176C174.176 418.025 174.735 417.949 175.284 417.949C175.635 417.949 176.037 417.991 176.492 418.077C176.951 418.157 177.394 418.325 177.82 418.581C178.251 418.837 178.608 419.223 178.892 419.739C179.176 420.255 179.319 420.946 179.319 421.812V429H177.642V427.523H177.557C177.444 427.759 177.254 428.013 176.989 428.283C176.724 428.553 176.371 428.782 175.931 428.972C175.49 429.161 174.953 429.256 174.319 429.256ZM174.574 427.75C175.237 427.75 175.796 427.62 176.25 427.359C176.71 427.099 177.055 426.763 177.287 426.351C177.524 425.939 177.642 425.506 177.642 425.051V423.517C177.571 423.602 177.415 423.68 177.174 423.751C176.937 423.818 176.662 423.877 176.35 423.929C176.042 423.976 175.741 424.019 175.448 424.057C175.159 424.09 174.925 424.118 174.745 424.142C174.309 424.199 173.902 424.291 173.523 424.419C173.149 424.542 172.846 424.729 172.614 424.98C172.387 425.226 172.273 425.562 172.273 425.989C172.273 426.571 172.489 427.011 172.919 427.31C173.355 427.603 173.907 427.75 174.574 427.75ZM184.054 422.438V429H182.378V418.091H183.997V419.795H184.139C184.395 419.241 184.783 418.796 185.304 418.46C185.825 418.119 186.497 417.949 187.321 417.949C188.06 417.949 188.706 418.1 189.26 418.403C189.814 418.702 190.245 419.156 190.553 419.767C190.86 420.373 191.014 421.14 191.014 422.068V429H189.338V422.182C189.338 421.325 189.116 420.657 188.67 420.179C188.225 419.696 187.615 419.455 186.838 419.455C186.303 419.455 185.825 419.571 185.403 419.803C184.987 420.035 184.658 420.373 184.416 420.818C184.175 421.263 184.054 421.803 184.054 422.438ZM198.509 429.227C197.486 429.227 196.605 428.986 195.867 428.503C195.128 428.02 194.56 427.355 194.162 426.507C193.765 425.66 193.566 424.691 193.566 423.602C193.566 422.494 193.769 421.517 194.176 420.669C194.588 419.817 195.161 419.152 195.895 418.673C196.634 418.19 197.496 417.949 198.48 417.949C199.248 417.949 199.939 418.091 200.554 418.375C201.17 418.659 201.674 419.057 202.067 419.568C202.46 420.08 202.704 420.676 202.799 421.358H201.123C200.995 420.861 200.711 420.42 200.27 420.037C199.835 419.649 199.248 419.455 198.509 419.455C197.855 419.455 197.283 419.625 196.79 419.966C196.302 420.302 195.921 420.778 195.647 421.393C195.377 422.004 195.242 422.722 195.242 423.545C195.242 424.388 195.374 425.122 195.64 425.747C195.909 426.372 196.288 426.857 196.776 427.203C197.268 427.549 197.846 427.722 198.509 427.722C198.944 427.722 199.34 427.646 199.695 427.494C200.05 427.343 200.351 427.125 200.597 426.841C200.843 426.557 201.018 426.216 201.123 425.818H202.799C202.704 426.462 202.47 427.042 202.096 427.558C201.726 428.07 201.236 428.477 200.625 428.78C200.019 429.078 199.314 429.227 198.509 429.227ZM209.823 429.227C208.772 429.227 207.865 428.995 207.103 428.531C206.345 428.062 205.76 427.409 205.348 426.571C204.941 425.728 204.738 424.748 204.738 423.631C204.738 422.513 204.941 421.528 205.348 420.676C205.76 419.819 206.333 419.152 207.067 418.673C207.806 418.19 208.667 417.949 209.652 417.949C210.221 417.949 210.782 418.044 211.336 418.233C211.89 418.422 212.394 418.73 212.848 419.156C213.303 419.578 213.665 420.136 213.935 420.832C214.205 421.528 214.34 422.385 214.34 423.403V424.114H205.931V422.665H212.635C212.635 422.049 212.512 421.5 212.266 421.017C212.025 420.534 211.679 420.153 211.229 419.874C210.784 419.594 210.258 419.455 209.652 419.455C208.985 419.455 208.407 419.62 207.919 419.952C207.436 420.278 207.065 420.705 206.804 421.23C206.544 421.756 206.414 422.319 206.414 422.92V423.886C206.414 424.71 206.556 425.409 206.84 425.982C207.129 426.55 207.529 426.983 208.04 427.281C208.551 427.575 209.146 427.722 209.823 427.722C210.263 427.722 210.661 427.66 211.016 427.537C211.376 427.409 211.686 427.22 211.946 426.969C212.207 426.713 212.408 426.396 212.55 426.017L214.169 426.472C213.999 427.021 213.712 427.504 213.31 427.92C212.908 428.332 212.41 428.654 211.819 428.886C211.227 429.114 210.561 429.227 209.823 429.227Z" fill="#203864"/>
</g>
<defs>
<filter id="filter0_d_206_5" x="98.8377" y="414.256" width="119.502" height="23" filterUnits="userSpaceOnUse" color-interpolation-filters="sRGB">
<feFlood flood-opacity="0" result="BackgroundImageFix"/>
<feColorMatrix in="SourceAlpha" type="matrix" values="0 0 0 0 0 0 0 0 0 0 0 0 0 0 0 0 0 0 127 0" result="hardAlpha"/>
<feOffset dy="4"/>
<feGaussianBlur stdDeviation="2"/>
<feComposite in2="hardAlpha" operator="out"/>
<feColorMatrix type="matrix" values="0 0 0 0 0 0 0 0 0 0 0 0 0 0 0 0 0 0 0.25 0"/>
<feBlend mode="normal" in2="BackgroundImageFix" result="effect1_dropShadow_206_5"/>
<feBlend mode="normal" in="SourceGraphic" in2="effect1_dropShadow_206_5" result="shape"/>
</filter>
</defs>
</svg>
