<?xml version="1.0" encoding="utf-8"?>
<!-- Generator: Adobe Illustrator 19.2.1, SVG Export Plug-In . SVG Version: 6.00 Build 0)  -->
<svg version="1.1" id="layer" xmlns="http://www.w3.org/2000/svg" xmlns:xlink="http://www.w3.org/1999/xlink" x="0px" y="0px"
	 viewBox="0 0 652 652" style="enable-background:new 0 0 652 652;" xml:space="preserve">
<style type="text/css">
	.st0{fill:#D6002A;}
</style>
<g>
	<g>
		<path class="st0" d="M88.9,359.4c0,4-0.7,7.4-2,10.3c-1.3,2.9-3,5.4-5.1,7.5c-3.3,3.3-7.3,5.6-12,7c-4.7,1.4-9.7,2.1-15,2.1
			c-4.6,0-9.1-0.7-13.5-2c-4.4-1.3-8.4-3.6-12-6.8c-2.6-2.3-4.7-5.2-6.4-8.6c-1.7-3.4-2.5-7.1-2.5-11.2h15.9c0,2.1,0.4,4,1.3,5.8
			c0.8,1.8,1.9,3.3,3.2,4.6c1.8,1.9,4.1,3.1,6.7,3.7c2.6,0.6,5.1,0.9,7.6,0.9c3,0,5.8-0.3,8.4-1c2.6-0.7,4.8-1.9,6.4-3.5
			c1-1,1.8-2.1,2.4-3.3c0.6-1.2,1-2.8,1-4.9c0-3.1-1-5.5-3.1-7c-2-1.6-4.4-2.6-7-3.1c-2.9-0.6-6-1-9.5-1.2c-3.4-0.2-6.6-0.6-9.4-1.1
			c-3-0.5-5.7-1.3-8.3-2.5c-2.6-1.2-4.9-2.8-6.9-4.7c-2-2-3.5-4.3-4.7-7.1c-1.2-2.8-1.7-5.9-1.7-9.4c0-3.4,0.7-6.4,2-9.2
			c1.4-2.8,3.2-5.3,5.4-7.6c2.8-2.8,6.4-5,10.8-6.6s9.1-2.4,14.2-2.4c4.6,0,8.9,0.7,13.2,2.1c4.2,1.4,7.8,3.5,10.6,6.2
			c2.6,2.4,4.6,5.1,6.2,8.2c1.6,3,2.4,6.4,2.5,10H71.7c-0.1-1.5-0.5-3-1.1-4.5c-0.7-1.5-1.5-2.8-2.6-3.9c-1.4-1.4-3.3-2.6-5.8-3.4
			c-2.5-0.8-4.9-1.2-7.2-1.2c-2.4,0-4.9,0.3-7.4,1c-2.5,0.6-4.7,1.9-6.4,3.7c-0.9,1-1.6,2-2.1,3.1c-0.5,1.1-0.8,2.5-0.8,4.1
			c0,2.8,0.8,4.9,2.4,6.4s3.7,2.4,6.2,2.8c2.7,0.4,5.8,0.8,9.2,1.1c3.4,0.3,6.5,0.7,9.3,1.1c3.2,0.5,6.2,1.3,9.1,2.6
			c2.8,1.2,5.3,2.9,7.5,4.9c2.1,2,3.8,4.5,5,7.4C88.3,352.5,88.9,355.8,88.9,359.4"/>
	</g>
	<g>
		<path class="st0" d="M156,384.8l-6-6.7c-3.4,3-7.2,5.3-11.4,6.7c-4.1,1.4-8.4,2.2-12.8,2.2c-3.8,0-7.4-0.6-10.8-1.8
			c-3.4-1.2-6.4-2.9-9-5.1c-2.6-2.2-4.6-4.9-6.1-8.1c-1.5-3.2-2.3-6.8-2.3-10.8c0-5.3,1.4-9.8,4.1-13.6c2.8-3.8,6.4-7,11-9.8
			c-1.4-1.4-2.6-2.9-3.7-4.3c-1.1-1.4-2.1-2.8-2.9-4.3c-0.8-1.4-1.4-3-1.9-4.6c-0.4-1.6-0.7-3.4-0.7-5.4c0-3.4,0.6-6.4,1.9-9
			c1.2-2.6,2.9-4.9,5-6.8s4.5-3.3,7.4-4.3c2.8-1,5.9-1.4,9.1-1.4c3.1,0,6.1,0.5,8.9,1.4c2.8,0.9,5.3,2.3,7.5,4.1
			c2.2,1.8,3.9,4,5.2,6.6c1.3,2.6,1.9,5.6,1.9,9c0,2.8-0.4,5.3-1.2,7.5c-0.8,2.2-1.9,4.2-3.4,6c-1.4,1.8-3.1,3.5-5.1,5
			c-2,1.5-4.1,3-6.4,4.3l14.8,16.1c0.7-1.4,1.2-2.9,1.5-4.7c0.3-1.8,0.5-3.7,0.7-5.7c0.2-1.9,0.2-3.8,0.2-5.6v-4.8h22v11.9h-9.8
			c-0.2,3.4-0.6,6.7-1.3,10c-0.7,3.3-2,6.3-3.8,9.1l15.7,17.1C174.2,384.8,156,384.8,156,384.8z M121.5,347.1
			c-1.4,0.9-2.8,1.7-4,2.5c-1.2,0.8-2.3,1.7-3.2,2.8c-0.9,1-1.6,2.2-2.2,3.5c-0.5,1.3-0.8,2.9-0.8,4.6c0,2.2,0.4,4.1,1.3,5.8
			c0.8,1.7,2,3.1,3.4,4.2c1.4,1.1,3,2,4.9,2.5c1.8,0.6,3.8,0.8,5.8,0.8c2.6,0,5.1-0.4,7.7-1.1s4.8-2.1,6.6-4.2L121.5,347.1z
			 M136.4,319.4c0-3-0.9-5.2-2.7-6.8c-1.8-1.6-4.1-2.4-6.8-2.4c-2.5,0-4.7,0.7-6.6,2.2c-1.9,1.5-2.9,3.7-2.9,6.7
			c0,1.4,0.3,2.6,0.8,3.8c0.5,1.2,1.2,2.3,1.9,3.4c0.8,1.1,1.6,2.1,2.6,3.1c1,1,1.9,1.9,2.8,2.8c1.3-0.7,2.6-1.5,3.9-2.2
			c1.3-0.8,2.5-1.6,3.5-2.6c1-1,1.9-2.1,2.5-3.4C136.1,322.7,136.4,321.1,136.4,319.4"/>
	</g>
	<g>
		<path class="st0" d="M249,326.8c0,4.1-0.6,7.8-1.9,11.2c-1.3,3.4-3.2,6.2-5.7,8.6c-2.5,2.4-5.7,4.3-9.4,5.6c-3.8,1.3-8.1,2-13,2
			h-18v30.5h-15.4v-85.2H219c4.9,0,9.2,0.7,13,2c3.8,1.3,6.9,3.2,9.4,5.5c2.5,2.4,4.4,5.2,5.7,8.6S249,322.7,249,326.8 M233.4,326.9
			c0-4.1-1.2-7.4-3.6-10c-2.4-2.6-6.2-3.8-11.4-3.8H201v27.5h17.4c5.2,0,9-1.3,11.4-3.8C232.2,334.3,233.4,331,233.4,326.9"/>
	</g>
	<g>
		<path class="st0" d="M340.3,384.7l-1.8-9.4c-0.6,1.2-1.6,2.5-2.9,3.8c-1.3,1.3-2.9,2.5-4.7,3.5s-4,1.9-6.3,2.6
			c-2.3,0.7-4.8,1-7.4,1c-5,0-9.6-0.7-13.9-2c-4.3-1.4-8.1-3.8-11.5-7.4c-2.2-2.3-4.1-4.8-5.5-7.3c-1.4-2.6-2.5-5.3-3.4-8.2
			c-0.8-2.9-1.4-5.9-1.7-9.1c-0.3-3.2-0.5-6.5-0.5-10c0-3.4,0.1-6.7,0.4-9.9c0.3-3.2,0.8-6.1,1.6-8.9c0.8-2.8,1.9-5.5,3.4-8.1
			c1.4-2.6,3.3-5,5.6-7.3c3.3-3.3,7.2-5.8,11.7-7.4c4.5-1.7,9.1-2.5,13.6-2.5c5.3,0,10.1,0.9,14.4,2.6c4.3,1.8,7.9,4.1,10.8,7.1
			c2.1,2.2,3.8,4.6,5.3,7.4c1.4,2.8,2.3,6,2.5,9.8h-15.9c-0.2-1.7-0.6-3.1-1.3-4.3c-0.7-1.2-1.5-2.4-2.4-3.5
			c-3-3.4-7.5-5.2-13.6-5.2c-2.5,0-5,0.5-7.6,1.5c-2.6,1-4.7,2.4-6.4,4.3c-1.4,1.5-2.6,3.3-3.5,5.3c-0.9,2-1.6,4.1-2,6.3
			c-0.5,2.2-0.8,4.4-0.9,6.7c-0.1,2.2-0.2,4.3-0.2,6.2c0,1.9,0.1,4,0.2,6.3c0.2,2.3,0.5,4.5,1,6.8c0.5,2.2,1.2,4.4,2,6.4
			c0.9,2,2,3.8,3.5,5.3c1.7,1.8,3.8,3.2,6.3,4.1c2.5,0.9,5,1.3,7.5,1.3c2.8,0,5.3-0.4,7.4-1.3c2.1-0.9,3.9-2.1,5.3-3.6
			c2.3-2.4,3.8-4.9,4.5-7.6c0.7-2.7,1-5.7,1-8.9H315v-12.9h35.3v46.6C350.3,384.7,340.3,384.7,340.3,384.7z"/>
	</g>
	<g>
		<path class="st0" d="M387.9,384.6c-1.5,0.3-2.6,0.5-3.3,0.7c-0.7,0.1-1.8,0.2-3.3,0.2c-5.1,0-9.2-1.3-12.4-4
			c-3.1-2.6-4.7-6.9-4.7-12.9v-70.8h15.1v68.2c0,1.8,0.4,3.3,1.1,4.4c0.7,1.1,2.4,1.6,4.9,1.6c0.6,0,1.1,0,1.4-0.1
			c0.3,0,0.7-0.1,1.1-0.1C387.9,372,387.9,384.6,387.9,384.6z"/>
	</g>
	<g>
		<path class="st0" d="M451.6,353.5c0,5.3-0.6,9.7-1.9,13.3c-1.3,3.6-3.1,6.8-5.4,9.8c-2.2,2.6-5.1,4.9-8.9,6.8
			c-3.8,1.9-8.1,2.9-12.9,2.9c-4.8,0-9.1-1-12.9-2.9c-3.8-1.9-6.8-4.2-9-6.8c-2.3-3-4.1-6.2-5.4-9.8c-1.3-3.6-1.9-8-1.9-13.3
			s0.6-9.7,1.9-13.3c1.3-3.6,3.1-6.8,5.4-9.8c2.2-2.6,5.1-4.9,9-6.8c3.8-1.9,8.1-2.9,12.9-2.9s9.1,1,12.9,2.9
			c3.8,1.9,6.8,4.2,8.9,6.8c2.3,3,4.1,6.2,5.4,9.8C451,343.8,451.6,348.2,451.6,353.5 M436.3,353.5c0-3-0.3-5.8-0.8-8.6
			c-0.6-2.8-1.8-5.1-3.6-7.2c-1-1.1-2.4-2.1-4-2.8c-1.6-0.8-3.4-1.1-5.5-1.1c-2.1,0-3.9,0.4-5.5,1.1s-2.9,1.7-4,2.8
			c-1.8,2-3,4.4-3.6,7.2c-0.6,2.8-0.8,5.6-0.8,8.6s0.3,5.8,0.8,8.6c0.6,2.8,1.8,5.1,3.6,7.1c1,1.1,2.4,2.1,4,2.8
			c1.6,0.8,3.4,1.1,5.5,1.1c2.1,0,3.9-0.4,5.5-1.1c1.6-0.8,2.9-1.7,4-2.8c1.8-2,3-4.4,3.6-7.1C436.1,359.3,436.3,356.4,436.3,353.5"
			/>
	</g>
	<g>
		<path class="st0" d="M520.9,353.6c0,5.9-0.9,11.2-2.8,15.8c-1.8,4.6-4.6,8.4-8.4,11.5c-1.9,1.6-4.1,2.9-6.7,3.8
			c-2.5,1-5.4,1.4-8.5,1.4c-3.4,0-6.8-0.7-10-2c-3.2-1.3-5.7-3.4-7.6-6.3l-1,6.8h-13V298h15v28.8c1.4-1.8,3.6-3.2,6.4-4.4
			c2.8-1.2,6.1-1.7,9.9-1.7c3.2,0,6.1,0.4,8.6,1.3c2.5,0.9,4.7,2.1,6.7,3.7C517.2,331.9,520.9,341.2,520.9,353.6 M505.6,353.4
			c0-2.7-0.3-5.4-0.8-8.1c-0.5-2.6-1.6-5-3.2-7.1c-1.1-1.4-2.5-2.5-4.1-3.5c-1.6-1-3.6-1.4-5.9-1.4c-3,0-5.4,0.6-7.2,1.9
			c-1.8,1.2-3.3,2.8-4.3,4.8c-1,2-1.7,4.1-2.1,6.5c-0.4,2.4-0.5,4.7-0.5,6.9c0,3,0.4,6.1,1.1,9.3c0.7,3.2,2.2,5.7,4.3,7.7
			c1,1,2.3,1.7,3.7,2.3c1.4,0.6,3.1,0.8,5,0.8c2.3,0,4.3-0.5,5.9-1.4c1.6-1,3-2.1,4.1-3.5c1.6-2.1,2.7-4.5,3.2-7.1
			C505.4,358.8,505.6,356.1,505.6,353.4"/>
	</g>
	<g>
		<path class="st0" d="M587.6,384c-1.3,0.6-2.4,1-3.3,1.3c-0.9,0.3-2.3,0.4-4.1,0.4c-3.3,0-5.8-0.9-7.6-2.6c-1.8-1.8-2.8-3.8-3-6.1
			c-1.4,2.6-3.8,4.8-7.2,6.6c-3.4,1.8-7.3,2.8-11.8,2.8c-3.8,0-7.1-0.5-9.9-1.6c-2.8-1.1-5.1-2.5-7-4.3c-1.9-1.8-3.3-3.9-4.3-6.2
			c-1-2.4-1.4-4.8-1.4-7.4c0-3,0.5-5.6,1.6-7.9c1.1-2.3,2.6-4.3,4.5-6c1.9-1.7,4.2-3,6.7-3.9c2.6-0.9,5.3-1.5,8.3-1.7l18.4-1.3V342
			c0-3-0.7-5.4-2.1-7.1c-1.4-1.8-4.2-2.7-8.5-2.7c-3.5,0-6.3,0.8-8.2,2.3c-2,1.5-3,3.7-3.2,6.6H531c0.2-3.5,1.1-6.6,2.5-9.1
			c1.4-2.6,3.3-4.7,5.6-6.3c2.3-1.6,5-2.9,8.1-3.7c3-0.8,6.3-1.2,9.8-1.2c5.4,0,10.2,0.9,14.4,2.8c4.2,1.9,7.2,5.2,9.1,9.9
			c0.8,2,1.3,4.1,1.5,6.2c0.2,2.2,0.3,4.3,0.3,6.4v23.2c0,1.4,0.3,2.5,0.8,3.1c0.5,0.6,1.4,0.9,2.7,0.9c0.6,0,1.1,0,1.3-0.1
			c0.2,0,0.4,0,0.6-0.1L587.6,384L587.6,384z M567.5,357l-15.9,1.2c-2.3,0.2-4.4,0.9-6.2,2.3c-1.8,1.4-2.8,3.3-2.8,5.9
			c0,2.4,0.9,4.3,2.7,5.7c1.8,1.4,3.9,2.1,6.2,2.1c4.7,0,8.6-1.2,11.5-3.7c3-2.4,4.4-6,4.4-10.6C567.5,359.8,567.5,357,567.5,357z"
			/>
	</g>
	<g>
		<path class="st0" d="M620.6,384.6c-1.5,0.3-2.6,0.5-3.3,0.7c-0.7,0.1-1.8,0.2-3.3,0.2c-5.1,0-9.2-1.3-12.4-4
			c-3.1-2.6-4.7-6.9-4.7-12.9v-70.8H612v68.2c0,1.8,0.4,3.3,1.1,4.4c0.7,1.1,2.4,1.6,4.9,1.6c0.6,0,1.1,0,1.4-0.1
			c0.3,0,0.7-0.1,1.1-0.1L620.6,384.6L620.6,384.6z"/>
	</g>
	<g>
		<rect x="20.6" y="256.8" width="600" height="13.8"/>
	</g>
</g>
</svg>
