<svg width="794" height="797" viewBox="0 0 794 797" fill="none" xmlns="http://www.w3.org/2000/svg">
<rect x="38" y="181" width="241" height="217" rx="16" fill="#FFF2CC"/>
<path d="M174.027 268.636C173.618 265.182 171.959 262.5 169.05 260.591C166.141 258.682 162.572 257.727 158.345 257.727C155.254 257.727 152.55 258.227 150.232 259.227C147.936 260.227 146.141 261.602 144.845 263.352C143.572 265.102 142.936 267.091 142.936 269.318C142.936 271.182 143.379 272.784 144.266 274.125C145.175 275.443 146.334 276.545 147.743 277.432C149.152 278.295 150.629 279.011 152.175 279.58C153.72 280.125 155.141 280.568 156.436 280.909L163.527 282.818C165.345 283.295 167.368 283.955 169.595 284.795C171.845 285.636 173.993 286.784 176.038 288.239C178.107 289.67 179.811 291.511 181.152 293.761C182.493 296.011 183.163 298.773 183.163 302.045C183.163 305.818 182.175 309.227 180.197 312.273C178.243 315.318 175.379 317.739 171.607 319.534C167.857 321.33 163.3 322.227 157.936 322.227C152.936 322.227 148.607 321.42 144.947 319.807C141.311 318.193 138.447 315.943 136.357 313.057C134.288 310.17 133.118 306.818 132.845 303H141.572C141.8 305.636 142.686 307.818 144.232 309.545C145.8 311.25 147.777 312.523 150.163 313.364C152.572 314.182 155.163 314.591 157.936 314.591C161.163 314.591 164.061 314.068 166.629 313.023C169.197 311.955 171.232 310.477 172.732 308.591C174.232 306.682 174.982 304.455 174.982 301.909C174.982 299.591 174.334 297.705 173.038 296.25C171.743 294.795 170.038 293.614 167.925 292.705C165.811 291.795 163.527 291 161.072 290.318L152.482 287.864C147.027 286.295 142.709 284.057 139.527 281.148C136.345 278.239 134.754 274.432 134.754 269.727C134.754 265.818 135.811 262.409 137.925 259.5C140.061 256.568 142.925 254.295 146.516 252.682C150.129 251.045 154.163 250.227 158.618 250.227C163.118 250.227 167.118 251.034 170.618 252.648C174.118 254.239 176.891 256.42 178.936 259.193C181.004 261.966 182.095 265.114 182.209 268.636H174.027Z" fill="#FFC000"/>
<g filter="url(#filter0_d_206_5)">
<path d="M139.905 418.091C139.82 417.371 139.474 416.812 138.868 416.415C138.262 416.017 137.519 415.818 136.638 415.818C135.994 415.818 135.431 415.922 134.948 416.131C134.47 416.339 134.096 416.625 133.826 416.99C133.561 417.355 133.428 417.769 133.428 418.233C133.428 418.621 133.52 418.955 133.705 419.234C133.894 419.509 134.136 419.739 134.43 419.923C134.723 420.103 135.031 420.252 135.353 420.371C135.675 420.484 135.971 420.577 136.241 420.648L137.718 421.045C138.097 421.145 138.518 421.282 138.982 421.457C139.451 421.633 139.898 421.872 140.324 422.175C140.755 422.473 141.11 422.857 141.39 423.325C141.669 423.794 141.809 424.369 141.809 425.051C141.809 425.837 141.603 426.547 141.191 427.182C140.784 427.816 140.187 428.321 139.401 428.695C138.62 429.069 137.671 429.256 136.553 429.256C135.511 429.256 134.609 429.088 133.847 428.751C133.09 428.415 132.493 427.946 132.057 427.345C131.626 426.744 131.383 426.045 131.326 425.25H133.144C133.191 425.799 133.376 426.254 133.698 426.614C134.025 426.969 134.437 427.234 134.934 427.409C135.436 427.58 135.975 427.665 136.553 427.665C137.225 427.665 137.829 427.556 138.364 427.338C138.899 427.116 139.323 426.808 139.635 426.415C139.948 426.017 140.104 425.553 140.104 425.023C140.104 424.54 139.969 424.147 139.699 423.844C139.43 423.541 139.074 423.295 138.634 423.105C138.194 422.916 137.718 422.75 137.206 422.608L135.417 422.097C134.28 421.77 133.381 421.304 132.718 420.697C132.055 420.091 131.724 419.298 131.724 418.318C131.724 417.504 131.944 416.794 132.384 416.188C132.829 415.577 133.426 415.103 134.174 414.767C134.927 414.426 135.767 414.256 136.695 414.256C137.633 414.256 138.466 414.424 139.195 414.76C139.924 415.091 140.502 415.546 140.928 416.124C141.359 416.701 141.586 417.357 141.61 418.091H139.905ZM148.909 429.227C147.924 429.227 147.06 428.993 146.317 428.524C145.578 428.055 145.001 427.4 144.584 426.557C144.172 425.714 143.966 424.729 143.966 423.602C143.966 422.466 144.172 421.474 144.584 420.626C145.001 419.779 145.578 419.121 146.317 418.652C147.06 418.183 147.924 417.949 148.909 417.949C149.894 417.949 150.756 418.183 151.494 418.652C152.238 419.121 152.816 419.779 153.227 420.626C153.644 421.474 153.852 422.466 153.852 423.602C153.852 424.729 153.644 425.714 153.227 426.557C152.816 427.4 152.238 428.055 151.494 428.524C150.756 428.993 149.894 429.227 148.909 429.227ZM148.909 427.722C149.657 427.722 150.273 427.53 150.756 427.146C151.239 426.763 151.596 426.259 151.828 425.634C152.06 425.009 152.176 424.331 152.176 423.602C152.176 422.873 152.06 422.194 151.828 421.564C151.596 420.934 151.239 420.425 150.756 420.037C150.273 419.649 149.657 419.455 148.909 419.455C148.161 419.455 147.546 419.649 147.063 420.037C146.58 420.425 146.222 420.934 145.99 421.564C145.758 422.194 145.642 422.873 145.642 423.602C145.642 424.331 145.758 425.009 145.99 425.634C146.222 426.259 146.58 426.763 147.063 427.146C147.546 427.53 148.161 427.722 148.909 427.722ZM160.843 429.227C159.82 429.227 158.939 428.986 158.201 428.503C157.462 428.02 156.894 427.355 156.496 426.507C156.099 425.66 155.9 424.691 155.9 423.602C155.9 422.494 156.103 421.517 156.51 420.669C156.922 419.817 157.495 419.152 158.229 418.673C158.968 418.19 159.83 417.949 160.814 417.949C161.581 417.949 162.273 418.091 162.888 418.375C163.504 418.659 164.008 419.057 164.401 419.568C164.794 420.08 165.038 420.676 165.133 421.358H163.456C163.329 420.861 163.045 420.42 162.604 420.037C162.169 419.649 161.581 419.455 160.843 419.455C160.189 419.455 159.617 419.625 159.124 419.966C158.636 420.302 158.255 420.778 157.981 421.393C157.711 422.004 157.576 422.722 157.576 423.545C157.576 424.388 157.708 425.122 157.974 425.747C158.243 426.372 158.622 426.857 159.11 427.203C159.602 427.549 160.18 427.722 160.843 427.722C161.278 427.722 161.674 427.646 162.029 427.494C162.384 427.343 162.685 427.125 162.931 426.841C163.177 426.557 163.352 426.216 163.456 425.818H165.133C165.038 426.462 164.804 427.042 164.43 427.558C164.06 428.07 163.57 428.477 162.959 428.78C162.353 429.078 161.648 429.227 160.843 429.227ZM167.583 429V418.091H169.259V429H167.583ZM168.435 416.273C168.108 416.273 167.827 416.161 167.59 415.939C167.358 415.716 167.242 415.449 167.242 415.136C167.242 414.824 167.358 414.556 167.59 414.334C167.827 414.111 168.108 414 168.435 414C168.762 414 169.041 414.111 169.273 414.334C169.51 414.556 169.628 414.824 169.628 415.136C169.628 415.449 169.51 415.716 169.273 415.939C169.041 416.161 168.762 416.273 168.435 416.273ZM175.539 429.256C174.848 429.256 174.221 429.125 173.657 428.865C173.094 428.6 172.646 428.219 172.315 427.722C171.983 427.22 171.818 426.614 171.818 425.903C171.818 425.278 171.941 424.772 172.187 424.384C172.433 423.991 172.762 423.683 173.174 423.46C173.586 423.238 174.041 423.072 174.538 422.963C175.04 422.849 175.544 422.759 176.051 422.693C176.713 422.608 177.251 422.544 177.663 422.501C178.079 422.454 178.383 422.376 178.572 422.267C178.766 422.158 178.863 421.969 178.863 421.699V421.642C178.863 420.941 178.671 420.397 178.288 420.009C177.909 419.62 177.334 419.426 176.562 419.426C175.762 419.426 175.134 419.601 174.68 419.952C174.225 420.302 173.906 420.676 173.721 421.074L172.13 420.506C172.414 419.843 172.793 419.327 173.267 418.957C173.745 418.583 174.266 418.323 174.829 418.176C175.397 418.025 175.956 417.949 176.505 417.949C176.856 417.949 177.258 417.991 177.713 418.077C178.172 418.157 178.615 418.325 179.041 418.581C179.472 418.837 179.829 419.223 180.113 419.739C180.397 420.255 180.539 420.946 180.539 421.812V429H178.863V427.523H178.778C178.664 427.759 178.475 428.013 178.21 428.283C177.945 428.553 177.592 428.782 177.151 428.972C176.711 429.161 176.174 429.256 175.539 429.256ZM175.795 427.75C176.458 427.75 177.017 427.62 177.471 427.359C177.93 427.099 178.276 426.763 178.508 426.351C178.745 425.939 178.863 425.506 178.863 425.051V423.517C178.792 423.602 178.636 423.68 178.394 423.751C178.158 423.818 177.883 423.877 177.57 423.929C177.263 423.976 176.962 424.019 176.669 424.057C176.38 424.09 176.145 424.118 175.965 424.142C175.53 424.199 175.123 424.291 174.744 424.419C174.37 424.542 174.067 424.729 173.835 424.98C173.607 425.226 173.494 425.562 173.494 425.989C173.494 426.571 173.709 427.011 174.14 427.31C174.576 427.603 175.127 427.75 175.795 427.75ZM185.275 414.455V429H183.599V414.455H185.275Z" fill="#7F6000"/>
</g>
<defs>
<filter id="filter0_d_206_5" x="127.326" y="414" width="61.9489" height="23.2557" filterUnits="userSpaceOnUse" color-interpolation-filters="sRGB">
<feFlood flood-opacity="0" result="BackgroundImageFix"/>
<feColorMatrix in="SourceAlpha" type="matrix" values="0 0 0 0 0 0 0 0 0 0 0 0 0 0 0 0 0 0 127 0" result="hardAlpha"/>
<feOffset dy="4"/>
<feGaussianBlur stdDeviation="2"/>
<feComposite in2="hardAlpha" operator="out"/>
<feColorMatrix type="matrix" values="0 0 0 0 0 0 0 0 0 0 0 0 0 0 0 0 0 0 0.25 0"/>
<feBlend mode="normal" in2="BackgroundImageFix" result="effect1_dropShadow_206_5"/>
<feBlend mode="normal" in="SourceGraphic" in2="effect1_dropShadow_206_5" result="shape"/>
</filter>
</defs>
</svg>
