<?xml version="1.0" encoding="utf-8"?>
<!-- Generator: Adobe Illustrator 19.2.1, SVG Export Plug-In . SVG Version: 6.00 Build 0)  -->
<svg version="1.1" id="layer" xmlns="http://www.w3.org/2000/svg" xmlns:xlink="http://www.w3.org/1999/xlink" x="0px" y="0px"
	 viewBox="0 0 652 652" style="enable-background:new 0 0 652 652;" xml:space="preserve">
<style type="text/css">
	.st0{fill:#64686B;}
	.st1{fill:#F7B400;}
	.st2{fill:#FAC64C;}
	.st3{fill:#FCDA8D;}
</style>
<g>
	<path class="st0" d="M185.3,311.9c-0.8-1.1-2-1.9-3.3-2.6c-1.4-0.6-2.7-0.9-3.9-0.9c-0.7,0-1.3,0.1-2,0.2c-0.7,0.1-1.3,0.3-1.8,0.7
		c-0.5,0.3-1,0.7-1.4,1.3c-0.4,0.5-0.5,1.2-0.5,2c0,0.7,0.1,1.3,0.4,1.7c0.3,0.5,0.7,0.9,1.3,1.2c0.6,0.3,1.2,0.7,2,1
		c0.8,0.3,1.6,0.6,2.6,0.9c1.4,0.5,2.8,1,4.3,1.5c1.5,0.6,2.9,1.3,4.1,2.2c1.2,0.9,2.2,2.1,3.1,3.4c0.8,1.4,1.2,3.1,1.2,5.1
		c0,2.3-0.4,4.4-1.3,6.1c-0.9,1.7-2,3.1-3.5,4.2c-1.5,1.1-3.1,1.9-5,2.5c-1.9,0.5-3.8,0.8-5.8,0.8c-2.9,0-5.7-0.5-8.5-1.5
		c-2.7-1-5-2.5-6.8-4.4l6.5-6.6c1,1.2,2.3,2.3,3.9,3.1c1.6,0.8,3.3,1.2,4.9,1.2c0.7,0,1.4-0.1,2.1-0.2c0.7-0.2,1.3-0.4,1.8-0.8
		c0.5-0.3,0.9-0.8,1.2-1.4c0.3-0.6,0.5-1.3,0.5-2.1c0-0.8-0.2-1.4-0.6-2c-0.4-0.5-0.9-1-1.6-1.5c-0.7-0.4-1.6-0.8-2.7-1.2
		c-1.1-0.4-2.3-0.8-3.6-1.2c-1.3-0.4-2.6-0.9-3.8-1.5c-1.2-0.6-2.4-1.3-3.3-2.2c-1-0.9-1.8-2-2.4-3.3c-0.6-1.3-0.9-2.9-0.9-4.7
		c0-2.3,0.5-4.2,1.4-5.8c0.9-1.6,2.1-2.9,3.6-4c1.5-1,3.2-1.8,5.1-2.3c1.9-0.5,3.8-0.7,5.7-0.7c2.3,0,4.7,0.4,7.1,1.3
		c2.4,0.8,4.5,2.1,6.3,3.7L185.3,311.9z"/>
	<path class="st0" d="M228.3,333.4c-0.8,2-2,3.7-3.5,5.2c-1.5,1.4-3.4,2.6-5.6,3.4c-2.2,0.8-4.6,1.2-7.2,1.2c-2.7,0-5.1-0.4-7.3-1.2
		c-2.2-0.8-4-1.9-5.5-3.4c-1.5-1.4-2.7-3.2-3.5-5.2c-0.8-2-1.2-4.3-1.2-6.7v-25.4h9.8v24.6c0,1.1,0.1,2.2,0.4,3.2
		c0.3,1,0.7,1.9,1.3,2.7c0.6,0.8,1.4,1.4,2.4,1.9c1,0.5,2.2,0.7,3.5,0.7c1.4,0,2.6-0.2,3.5-0.7c1-0.5,1.8-1.1,2.4-1.9
		c0.6-0.8,1.1-1.7,1.3-2.7c0.3-1,0.4-2.1,0.4-3.2v-24.6h9.9v25.4C229.6,329.2,229.1,331.4,228.3,333.4"/>
	<path class="st0" d="M256.2,311.9c-0.8-1.1-2-1.9-3.3-2.6c-1.4-0.6-2.7-0.9-3.9-0.9c-0.7,0-1.3,0.1-2,0.2c-0.7,0.1-1.3,0.3-1.8,0.7
		c-0.5,0.3-1,0.7-1.4,1.3c-0.4,0.5-0.5,1.2-0.5,2c0,0.7,0.1,1.3,0.4,1.7c0.3,0.5,0.7,0.9,1.3,1.2c0.6,0.3,1.2,0.7,2,1
		c0.8,0.3,1.6,0.6,2.6,0.9c1.4,0.5,2.8,1,4.3,1.5c1.5,0.6,2.9,1.3,4.1,2.2c1.2,0.9,2.2,2.1,3.1,3.4c0.8,1.4,1.2,3.1,1.2,5.1
		c0,2.3-0.4,4.4-1.3,6.1c-0.9,1.7-2,3.1-3.5,4.2c-1.5,1.1-3.1,1.9-5,2.5c-1.9,0.5-3.8,0.8-5.8,0.8c-2.9,0-5.7-0.5-8.5-1.5
		c-2.7-1-5-2.5-6.8-4.4l6.5-6.6c1,1.2,2.3,2.3,3.9,3.1c1.6,0.8,3.3,1.2,4.9,1.2c0.7,0,1.4-0.1,2.1-0.2c0.7-0.2,1.3-0.4,1.8-0.8
		c0.5-0.3,0.9-0.8,1.2-1.4c0.3-0.6,0.5-1.3,0.5-2.1c0-0.8-0.2-1.4-0.6-2c-0.4-0.5-0.9-1-1.6-1.5c-0.7-0.4-1.6-0.8-2.7-1.2
		c-1.1-0.4-2.3-0.8-3.6-1.2c-1.3-0.4-2.6-0.9-3.8-1.5c-1.2-0.6-2.4-1.3-3.3-2.2c-1-0.9-1.8-2-2.4-3.3c-0.6-1.3-0.9-2.9-0.9-4.7
		c0-2.3,0.5-4.2,1.4-5.8c0.9-1.6,2.1-2.9,3.6-4c1.5-1,3.2-1.8,5.1-2.3c1.9-0.5,3.8-0.7,5.7-0.7c2.3,0,4.7,0.4,7.1,1.3
		c2.4,0.8,4.5,2.1,6.3,3.7L256.2,311.9z"/>
	<polygon class="st0" points="285.8,309.7 285.8,342.1 276,342.1 276,309.7 264.4,309.7 264.4,301.3 297.3,301.3 297.3,309.7 	"/>
	<path class="st0" d="M323.2,342.1l-3.2-8h-15.8l-3,8h-10.7l17.1-40.8h9.6l17,40.8H323.2z M312.2,312.2l-5.2,14h10.3L312.2,312.2z"
		/>
	<rect x="336.9" y="301.3" class="st0" width="9.9" height="40.8"/>
	<polygon class="st0" points="378.3,342.1 361.9,315.4 361.7,315.4 362,342.1 352.4,342.1 352.4,301.3 363.6,301.3 380,327.9 
		380.2,327.9 379.9,301.3 389.5,301.3 389.5,342.1 	"/>
	<path class="st0" d="M425,342.1l-3.2-8h-15.8l-3,8h-10.7l17.1-40.8h9.6l16.9,40.8H425z M414.1,312.2l-5.2,14h10.3L414.1,312.2z"/>
	<polygon class="st0" points="438.8,342.1 438.8,301.3 448.7,301.3 448.7,333.5 464.5,333.5 464.5,342.1 	"/>
	<polygon class="st0" points="480.8,324.8 480.8,342.1 471,342.1 471,324.8 455.6,301.3 467.6,301.3 476.3,316.4 485,301.3 
		496.5,301.3 	"/>
	<polygon class="st0" points="519.9,309.7 519.9,342.1 510,342.1 510,309.7 498.5,309.7 498.5,301.3 531.4,301.3 531.4,309.7 	"/>
	<rect x="536.5" y="301.3" class="st0" width="9.9" height="40.8"/>
	<path class="st0" d="M581.2,341.4c-2.7,1.2-5.7,1.8-9.2,1.8c-3.2,0-6.1-0.5-8.7-1.6c-2.7-1-5-2.5-6.9-4.4c-2-1.9-3.5-4.2-4.6-6.8
		c-1.1-2.7-1.7-5.6-1.7-8.8c0-3.3,0.6-6.2,1.7-8.9c1.1-2.7,2.7-4.9,4.7-6.8c2-1.9,4.3-3.3,7-4.3c2.7-1,5.6-1.5,8.7-1.5
		c2.9,0,5.7,0.5,8.5,1.5c2.8,1,5,2.5,6.8,4.5l-6.7,6.7c-0.9-1.3-2.1-2.2-3.6-2.8c-1.5-0.6-3-0.9-4.6-0.9c-1.7,0-3.3,0.3-4.8,0.9
		c-1.4,0.6-2.7,1.5-3.7,2.6c-1,1.1-1.8,2.4-2.4,3.9c-0.6,1.5-0.9,3.2-0.9,5c0,1.8,0.3,3.5,0.9,5.1c0.6,1.5,1.4,2.9,2.4,3.9
		c1,1.1,2.2,2,3.7,2.6c1.4,0.6,3,0.9,4.7,0.9c2,0,3.7-0.4,5.1-1.2c1.5-0.8,2.6-1.8,3.5-3l6.9,6.5
		C586.1,338.5,583.8,340.2,581.2,341.4"/>
	<path class="st0" d="M614.2,311.9c-0.8-1.1-2-1.9-3.3-2.6c-1.4-0.6-2.7-0.9-3.9-0.9c-0.7,0-1.3,0.1-2,0.2s-1.3,0.3-1.8,0.7
		c-0.5,0.3-1,0.7-1.4,1.3c-0.4,0.5-0.5,1.2-0.5,2c0,0.7,0.1,1.3,0.4,1.7c0.3,0.5,0.7,0.9,1.3,1.2c0.6,0.3,1.2,0.7,2,1
		c0.8,0.3,1.6,0.6,2.6,0.9c1.4,0.5,2.8,1,4.3,1.5c1.5,0.6,2.9,1.3,4.1,2.2c1.2,0.9,2.2,2.1,3.1,3.4c0.8,1.4,1.2,3.1,1.2,5.1
		c0,2.3-0.4,4.4-1.3,6.1c-0.9,1.7-2,3.1-3.5,4.2c-1.5,1.1-3.1,1.9-5,2.5c-1.9,0.5-3.8,0.8-5.8,0.8c-2.9,0-5.7-0.5-8.5-1.5
		c-2.7-1-5-2.5-6.8-4.4l6.5-6.6c1,1.2,2.3,2.3,3.9,3.1c1.6,0.8,3.3,1.2,4.9,1.2c0.7,0,1.4-0.1,2.1-0.2c0.7-0.2,1.3-0.4,1.8-0.8
		c0.5-0.3,0.9-0.8,1.2-1.4c0.3-0.6,0.5-1.3,0.5-2.1c0-0.8-0.2-1.4-0.6-2c-0.4-0.5-0.9-1-1.6-1.5c-0.7-0.4-1.6-0.8-2.7-1.2
		c-1.1-0.4-2.3-0.8-3.6-1.2c-1.3-0.4-2.6-0.9-3.8-1.5c-1.2-0.6-2.4-1.3-3.3-2.2c-1-0.9-1.8-2-2.4-3.3c-0.6-1.3-0.9-2.9-0.9-4.7
		c0-2.3,0.5-4.2,1.4-5.8c0.9-1.6,2.1-2.9,3.6-4c1.5-1,3.2-1.8,5.1-2.3c1.9-0.5,3.8-0.7,5.7-0.7c2.3,0,4.7,0.4,7.1,1.3
		c2.4,0.8,4.5,2.1,6.3,3.7L614.2,311.9z"/>
	<path class="st1" d="M39.4,322.6H20.5c0.5,33.5,27.5,60.5,61,61v-18.9C58.5,364.2,39.9,345.6,39.4,322.6"/>
	<path class="st1" d="M83.3,364.7v18.9c33.5-0.5,60.5-27.5,61-61h-18.9C124.9,345.6,106.3,364.2,83.3,364.7"/>
	<path class="st1" d="M125.4,320.7h18.9c-0.5-33.5-27.5-60.5-61-61v18.9C106.3,279.1,124.9,297.7,125.4,320.7"/>
	<path class="st2" d="M104.7,320.7h18.9c-0.5-22-18.3-39.8-40.2-40.2v18.9C94.9,299.9,104.2,309.2,104.7,320.7"/>
	<path class="st2" d="M83.3,343.9v18.9c22-0.5,39.8-18.3,40.2-40.2h-18.9C104.2,334.1,94.9,343.4,83.3,343.9"/>
	<path class="st2" d="M60.1,322.6H41.2c0.5,22,18.3,39.8,40.2,40.2v-18.9C69.9,343.4,60.6,334.1,60.1,322.6"/>
	<path class="st3" d="M83.3,342.1c10.5-0.5,19-9,19.5-19.5H83.3V342.1z"/>
	<path class="st3" d="M102.8,320.7c-0.5-10.5-9-19-19.5-19.5v19.5H102.8z"/>
	<path class="st3" d="M62,322.6c0.5,10.5,9,19,19.5,19.5v-19.5H62z"/>
	<rect x="62" y="259.8" class="st3" width="19.5" height="61"/>
	<rect x="41.2" y="280.5" class="st2" width="18.9" height="40.2"/>
	<rect x="20.5" y="301.2" class="st1" width="18.9" height="19.5"/>
</g>
</svg>
