<?xml version="1.0" encoding="utf-8"?>
<!-- Generator: Adobe Illustrator 19.2.1, SVG Export Plug-In . SVG Version: 6.00 Build 0)  -->
<svg version="1.1" id="layer" xmlns="http://www.w3.org/2000/svg" xmlns:xlink="http://www.w3.org/1999/xlink" x="0px" y="0px"
	 viewBox="0 0 652 652" style="enable-background:new 0 0 652 652;" xml:space="preserve">
<style type="text/css">
	.st0{fill:#FFFFFF;}
	.st1{fill:#888B8D;}
	.st2{fill:#C8102E;}
</style>
<ellipse class="st0" cx="325.2" cy="329.7" rx="189.8" ry="194.3"/>
<g>
	<g>
		<g>
			<path class="st1" d="M326,76C187.9,76,76,187.9,76,326s111.9,250,250,250s250-111.9,250-250S464.1,76,326,76z M326,508.2
				c-100.6,0-182.2-81.5-182.2-182.2S225.4,143.8,326,143.8S508.2,225.4,508.2,326S426.6,508.2,326,508.2z"/>
		</g>
		<g>
			<g>
				<path class="st0" d="M158.2,449.9c-0.3-1.6-1-3.2-1.9-4.6c-1-1.3-2.7-2.7-4.9-1.1c-3.3,2.4,4,9.9-2.5,14.5
					c-4.3,3-8.3,0.6-11-3.2c-1.4-2.1-1.9-3.3-2.7-5.6l3.8-2.1c0.2,1.9,0.8,3.7,1.9,5.3c1,1.4,3.2,3,4.9,1.8c3.7-2.5-3.8-10,2.7-14.6
					c4.3-3,8.3-0.8,10.7,2.7c1.1,1.8,2.1,3.3,2.5,5.1L158.2,449.9z"/>
				<path class="st0" d="M168.7,461.8l-4.5-5.1l2.9-2.5l12.3,13.9l-2.9,2.5l-4.5-5.1l-15,13.4l-3.2-3.7L168.7,461.8z"/>
				<path class="st0" d="M188.6,476.8l4,3.7l-8.8,24l-4-3.5l2.1-5.4l-7.2-6.4l-5.3,2.7l-3.7-3.3L188.6,476.8z M187.5,482.2
					L187.5,482.2l-9.2,5.1l5.3,4.6L187.5,482.2z"/>
				<path class="st0" d="M206.4,491.6l4.9,3.2l-2.1,19.9l0,0l9.7-15l3.8,2.5l-13.1,20.1l-4.9-3.2l2.1-19.9l0,0l-9.7,15l-3.8-2.5
					L206.4,491.6z"/>
				<path class="st0" d="M232.2,507.5l5.9,2.7c6.7,3,11.5,8,7.5,16.6c-4,8.6-10.8,8.1-17.5,5.1l-5.9-2.7L232.2,507.5z M228.2,527.8
					l2.4,1.1c3.7,1.8,8.4,0.6,10.5-4.1c2.2-4.8-0.2-9.1-3.7-10.7l-2.4-1.1L228.2,527.8z"/>
				<path class="st0" d="M265.6,520.9l5.3,1.6l2.2,25.5l-5.1-1.4l-0.5-5.9l-9.2-2.7l-3.5,4.6l-4.8-1.4L265.6,520.9z M266.8,526.3
					L266.8,526.3l-6.2,8.4l6.7,1.9L266.8,526.3z"/>
				<path class="st0" d="M287.8,526.6l5.1,0.8c5.1,0.8,11.1,1.4,10.2,8.1c-0.5,2.7-2.5,4.8-5.7,4.8l0,0c1.3,0.3,1.8,1.8,2.1,2.9
					l2.4,9.9l-5.3-0.8l-1.8-7.8c-0.5-1.9-1-2.5-2.9-2.9l-1.6-0.2l-1.4,9.9l-4.8-0.6L287.8,526.6z M291,537.5l1.6,0.2
					c2.4,0.3,5.1,0.5,5.4-2.5c0.5-2.9-2.2-3.5-4.6-3.8l-1.6-0.2L291,537.5z"/>
				<path class="st0" d="M313.7,529.8l6.5,0.2c7.3,0.2,13.7,2.7,13.5,12.1c-0.2,9.4-6.7,11.8-14,11.8l-6.5-0.2L313.7,529.8z
					 M318.2,550h2.7c4,0,8-2.9,8-8.1c0.2-5.3-3.7-8.3-7.6-8.3h-2.7L318.2,550z"/>
				<path class="st0" d="M356.4,532.4c-1.6-0.5-3.3-0.6-4.9-0.5c-1.6,0.2-3.7,1.1-3.3,3.7c0.5,4.1,10.7,1.1,11.6,9.1
					c0.6,5.3-3.3,7.6-8.1,8.1c-2.5,0.3-3.8,0.2-6.2-0.2v-4.3c1.8,0.6,3.7,1.1,5.6,0.8c1.8-0.2,4.1-1.4,3.8-3.5
					c-0.5-4.5-10.7-1.4-11.6-9.2c-0.6-5.3,3.2-7.6,7.5-8.1c2.1-0.3,4-0.2,5.7,0.2L356.4,532.4z"/>
				<path class="st0" d="M398.3,517.1l7.6-3.2c2.9-1.3,7.5-2.2,9.4,2.7c1.1,2.5,0.2,5.3-2.2,6.7l0,0c3.2-1,6.1,0.2,7.2,2.9
					c2.4,5.6-2.2,8.4-5.1,9.6l-7.6,3.2L398.3,517.1z M406.4,524.1l1.8-0.8c1.9-0.8,4-2.2,3-4.5c-1.1-2.5-3.3-1.8-5.4-1l-1.8,0.8
					L406.4,524.1z M410.4,533.6l2.1-1c2.1-0.8,4.3-2.4,3.2-4.9c-1.3-2.9-3.7-2.4-5.9-1.4l-2.1,1L410.4,533.6z"/>
				<path class="st0" d="M430.8,500.7c6.4-3.8,12.6-1.8,16.4,4.5c3.7,6.2,2.9,12.7-3.7,16.7c-6.5,4-12.6,1.6-16.4-4.6
					C423.3,510.9,424.2,504.5,430.8,500.7z M441.6,518.5c4.1-2.5,3.5-7.2,1.3-10.8c-2.2-3.7-6.1-6.2-10.2-3.8
					c-4.1,2.4-3.5,7.2-1.3,10.7C433.6,518.2,437.5,521.1,441.6,518.5z"/>
				<path class="st0" d="M453.4,485.4l4.1-3.5l22.3,12.4l-4.1,3.3l-5.1-2.9l-7.5,6.1l1.9,5.6l-3.8,3.2L453.4,485.4z M458.5,487.5
					L458.5,487.5l3.5,9.9l5.4-4.5L458.5,487.5z"/>
				<path class="st0" d="M470.6,470.3l3.5-3.8c3.5-3.8,7.5-8.4,12.4-3.8c2.1,1.9,2.5,4.9,0.8,7.3l0,0c1-1,2.4-0.6,3.5-0.2l9.4,3.5
					l-3.7,4l-7.5-2.9c-1.8-0.6-2.7-0.6-4,0.8l-1,1.1l7.3,6.7l-3.2,3.5L470.6,470.3z M481.3,473.6l1.1-1.1c1.6-1.8,3.2-4,1-5.9
					c-2.1-1.9-4.1-0.2-5.7,1.6l-1.1,1.1L481.3,473.6z"/>
				<path class="st0" d="M488.7,449.6l3.7-5.4c4.1-6.1,9.9-9.9,17.7-4.6c7.8,5.4,6.2,12.1,2.1,18.2l-3.7,5.4L488.7,449.6z
					 M507.8,457.1l1.4-2.2c2.2-3.3,2.1-8.1-2.2-11.1c-4.3-3-8.9-1.4-11.1,1.9l-1.6,2.2L507.8,457.1z"/>
			</g>
			<g>
				<path class="st0" d="M102.6,313.9c-0.6,1.4-1.1,3.2-1.1,4.8c0,1.6,0.6,3.8,3.2,3.8c4.1,0.2,2.7-10.4,10.7-10.2
					c5.3,0.2,7.2,4.3,7,9.1c0,2.5-0.5,3.8-1.1,6.1l-4.3-0.6c1-1.6,1.6-3.5,1.6-5.4c0-1.8-0.8-4.3-3-4.3c-4.6-0.2-3,10.4-10.8,10.2
					c-5.3-0.2-7.2-4.3-7-8.6c0-2.1,0.3-4,1-5.7L102.6,313.9z"/>
				<path class="st0" d="M99.4,298.9l0.8-4.8l13.5,2.2c4,0.6,6.8-0.2,7.5-3.8s-1.8-5.3-5.9-5.9l-13.5-2.2l0.8-4.8l15,2.4
					c6.4,1,8.3,5.1,7.3,11c-1,6.1-4.1,9.2-10.5,8.1L99.4,298.9z"/>
				<path class="st0" d="M113.7,254.8c-1.1,1.3-1.9,2.7-2.4,4.3s-0.5,3.8,2.1,4.6c4,1.3,5.4-9.2,13.1-7c4.9,1.6,5.7,6.1,4.3,10.7
					c-0.8,2.5-1.4,3.5-2.7,5.6l-4-1.8c1.3-1.3,2.4-2.9,3-4.8c0.5-1.8,0.3-4.3-1.8-4.9c-4.3-1.3-5.6,9.2-13.2,6.8
					c-5.1-1.6-5.7-6.1-4.5-10c0.6-1.9,1.4-3.7,2.5-5.3L113.7,254.8z"/>
				<path class="st0" d="M119.9,237l-2.7,6.2l-3.5-1.6l7.5-16.9l3.5,1.6l-2.7,6.2l18.3,8.1l-1.9,4.3L119.9,237z"/>
				<path class="st0" d="M129.5,210.2l2.9-4.6l25.3,4.3l-2.7,4.5l-5.7-1.1l-4.9,8.3l3.7,4.6l-2.9,4.3L129.5,210.2z M134.9,210.4
					L134.9,210.4l6.5,8.1l3.7-5.9L134.9,210.4z"/>
				<path class="st0" d="M144.2,188.3l2.9-3.8l18.8,14.6l-2.9,3.8L144.2,188.3z"/>
				<path class="st0" d="M155.9,173.6l4.1-4.1l19.1,5.9l0,0l-12.7-12.4l3.2-3.3l17,16.7l-4,4.1l-19.1-5.9l0,0l12.7,12.4l-3.2,3.3
					L155.9,173.6z"/>
				<path class="st0" d="M186.2,145.7l4.3-3.2l21.8,13.4l-4.3,3.2l-4.9-3.2l-7.6,5.9l1.6,5.6l-4,3L186.2,145.7z M191.1,148
					L191.1,148l3.2,10l5.6-4.1L191.1,148z"/>
				<path class="st0" d="M208.5,130.3l7.3-4c2.7-1.4,7.2-3,9.7,1.6c1.4,2.5,0.6,5.1-1.6,7l0,0c3-1.3,6.1-0.5,7.5,2.1
					c2.9,5.3-1.3,8.6-4,10.2l-7.3,4L208.5,130.3z M217.4,136.5l1.8-1c1.8-1,3.7-2.5,2.5-4.8c-1.3-2.4-3.5-1.4-5.4-0.3l-1.6,1
					L217.4,136.5z M222.5,145.6l1.9-1.1c1.9-1.1,4-2.9,2.7-5.3c-1.6-2.7-4-1.9-6.1-0.8l-1.9,1.1L222.5,145.6z"/>
				<path class="st0" d="M234.6,116.9l4.5-1.9l9.2,22l-4.5,1.9L234.6,116.9z"/>
				<path class="st0" d="M251.8,110.2l4.6-1.4l6.1,19.1l8.9-2.9l1.1,3.7l-13.4,4.3L251.8,110.2z"/>
				<path class="st0" d="M276.2,103.4l4.6-1l4.9,23.2l-4.6,1L276.2,103.4z"/>
				<path class="st0" d="M299.1,103.2l-6.8,0.8l-0.5-3.7l18.3-2.1l0.5,3.7l-6.8,0.8l2.2,19.9l-4.8,0.5L299.1,103.2z"/>
				<path class="st0" d="M329.7,112.3l-8.3-14.6l5.6,0.2l5.4,10.2l6.1-9.9l5.1,0.2l-8.9,14.2l-0.3,9.4l-4.8-0.2L329.7,112.3z"/>
				<path class="st0" d="M394.2,108.3l5.1,1.8l1.4,25.6l-5.1-1.6l-0.3-5.9l-9.2-3l-3.7,4.6l-4.8-1.6L394.2,108.3z M395.1,113.6
					L395.1,113.6l-6.4,8.3l6.7,2.2L395.1,113.6z"/>
				<path class="st0" d="M423.9,146.1c-1.8-0.3-3.7-1-5.3-1.8c-7-3.3-10-9.2-6.5-16.4c3.5-7.3,10-9.2,17.4-5.7
					c1.4,0.6,3.2,1.9,4.5,3.2l-2.1,3.5c-1.1-1.8-2.5-2.7-4.1-3.3c-4.5-2.1-8.8-0.2-11,4.3c-2.1,4.3-1,8.9,3.5,11.1
					c1.8,0.8,3.8,1.4,5.1,1.4L423.9,146.1z"/>
				<path class="st0" d="M446.4,160.2c-1.8-0.6-3.5-1.4-4.9-2.4c-6.5-4.3-8.8-10.4-4.5-17.2c4.5-6.8,11.1-8,18-3.5
					c1.3,0.8,2.9,2.2,4,3.8l-2.5,3.2c-1-1.9-2.2-3-3.7-3.8c-4.1-2.7-8.8-1.3-11.5,2.9c-2.7,4-2.2,8.8,2.1,11.6
					c1.6,1,3.7,1.9,4.9,2.1L446.4,160.2z"/>
				<path class="st0" d="M477.3,154.8c5.6,4.9,5.4,11.5,0.6,16.9s-11.3,6.5-17,1.6c-5.7-5.1-5.4-11.6-0.5-17
					C465.3,150.8,471.7,149.7,477.3,154.8z M463.4,170.4c3.7,3.2,8,1.1,10.8-2.1s4.1-7.6,0.6-10.8c-3.5-3.2-7.8-1.3-10.7,1.9
					C461.4,162.8,459.8,167.2,463.4,170.4z"/>
				<path class="st0" d="M495.3,172.8l3,3.7l-10.7,8.8c-3.2,2.5-4.3,5.3-2.1,8.1c2.4,2.9,5.3,2.1,8.3-0.5l10.7-8.8l3,3.7l-11.8,9.7
					c-4.9,4.1-9.2,3-13.2-1.8c-3.8-4.8-4.1-9.2,0.8-13.2L495.3,172.8z"/>
				<path class="st0" d="M516.1,199.6l3,5.1l-10.5,17l0,0l15.3-9.2l2.4,4l-20.4,12.3l-3-4.9l10.5-17l0,0l-15.3,9.2l-2.4-4
					L516.1,199.6z"/>
				<path class="st0" d="M531.1,234.9l-2.7-6.2l3.5-1.4l7.3,17l-3.5,1.4l-2.7-6.2l-18.5,8l-1.9-4.5L531.1,234.9z"/>
				<path class="st0" d="M542.9,255l1.4,4.6l-22.8,7.2l-1.4-4.6L542.9,255z"/>
				<path class="st0" d="M548.1,272.8l1.1,5.7l-15.8,12.3l0,0l17.5-3.3l1,4.5l-23.4,4.6l-1.1-5.7l15.8-12.4l0,0l-17.5,3.3l-1-4.5
					L548.1,272.8z"/>
				<path class="st0" d="M549.6,325.5c0.8-1.9,1.1-4.3,1-6.2c-0.2-5.6-4.1-8.4-8.9-8.3c-4.8,0.2-8.4,3.3-8.1,8.4
					c0,1.3,0.2,2.4,0.5,3.2l6.2-0.3l-0.2-5.1l3.8-0.2l0.3,9.6l-12.9,0.5c-0.8-2.5-1.4-5.1-1.6-7.6c-0.3-7.6,3.3-13.2,11.3-13.5
					c8.1-0.3,12.9,4.5,13.2,12.6c0.2,2.7-0.2,4.9-0.6,7H549.6z"/>
			</g>
		</g>
	</g>
	<g>
		<g>
			<path d="M233.6,345.6h3.5v20.2h-3.7c-1.8-9.4-9.9-18.5-19.7-18.5c-6.2,0-15.1,3.7-15.1,11.1c0,6.7,4.8,8.6,10.4,9.9
				c5.9,1.3,15.4,3.5,20.7,5.9c6.8,3,12.4,9.1,12.4,22.3c0,13.4-8.1,27.1-26.8,27.1c-5.9,0-11-1.8-15.8-5.4l-5.9,4.3h-4.1v-22.1h4.1
				c3,10.5,10.7,19.7,22.1,19.7c12.6,0,18.2-8.1,18.2-15.3c0-9.9-11-10.7-22-13.4c-11-2.9-22.1-7.5-22.1-24.7
				c0-13.1,11-22.8,23.9-22.8c5.4,0,10.7,2.2,15.4,5.1L233.6,345.6z"/>
			<path d="M246.7,421.7v-3.3c2.7,0,7.8,0.2,9.1-3.3l26.9-71.2h4.5l28.3,74.5h6.8v3.5h-36.1v-3.5h8.8l-6.2-17.8h-23.4l-3,8.3
				c-1.3,3.3-2.2,6.7-2.2,7.8c0,2.9,8.6,1.9,10.4,1.9v3.5h-23.7V421.7z M266.8,397h20.5l-10.2-27.9L266.8,397z"/>
			<path d="M373.6,345.6h3.5v20.2h-3.7c-1.8-9.4-9.9-18.5-19.7-18.5c-6.2,0-15.1,3.7-15.1,11.1c0,6.7,4.8,8.6,10.4,9.9
				c5.9,1.3,15.4,3.5,20.7,5.9c6.8,3,12.4,9.1,12.4,22.3c0,13.4-8.1,27.1-26.8,27.1c-5.9,0-11-1.8-15.8-5.4l-5.9,4.3h-4.1v-22.1h4.1
				c3,10.5,10.7,19.7,22.1,19.7c12.6,0,18.2-8.1,18.2-15.3c0-9.9-11-10.7-22-13.4c-11-2.9-22.1-7.5-22.1-24.7
				c0-13.1,11-22.8,23.9-22.8c5.4,0,10.7,2.2,15.4,5.1L373.6,345.6z"/>
			<path d="M394.6,421.7v-3.3h7.8v-69.3h-8.1v-3.3h42.4c9.9,0,23.4,4.8,24.2,16.7c0.6,8.6-5.1,16.2-22.3,19.6v0.2
				c11.3,0.3,26.3,5.7,26.3,19.4c0,8.3-5.6,13.9-12.3,17c-5.7,2.9-13.2,3-19.4,3H394.6L394.6,421.7z M421.5,380.3h4.9
				c12.1,0,14.6-1.4,14.6-16.7c0-13.5-0.5-14.6-12.1-14.6h-7.5V380.3z M435.1,418.4c10.2,0,8.6-9.1,8.6-17c0-13.9-1-17.5-17-17.5
				h-5.1v34.6H435.1z"/>
		</g>
		<g>
			<rect x="287" y="173.6" class="st2" width="31.7" height="152.4"/>
			<rect x="238.4" y="224.4" class="st2" width="31.7" height="101.6"/>
			<rect x="189.9" y="275.2" class="st2" width="31.7" height="50.8"/>
			<g>
				<path class="st2" d="M394.8,187.5c-0.8-0.3-1.6-0.8-2.2-1.1l-40,59.4L339.4,172c-1.3-0.2-2.4-0.3-3.7-0.3V326h145.2
					c0-1.3,0-2.4,0-3.7l-65.4-13.2l55.6-37.6c-0.3-0.8-0.6-1.6-1-2.5l-68.5,13.1l39.5-59.6c-0.6-0.6-1.1-1.3-1.8-1.9l-59.1,39
					L394.8,187.5z"/>
			</g>
		</g>
	</g>
</g>
<g>
	<path d="M519.9,502.8v1.3h-3.8v9.9h-1.6V504h-3.8v-1.3H519.9z"/>
	<path d="M522.2,502.8h2.2l3.2,9.4l3.2-9.4h2.2v11.1h-1.6v-6.5c0-0.2,0-0.6,0-1.1c0-0.5,0-1.1,0-1.8l-3.2,9.4h-1.4l-3.2-9.4v0.3
		c0,0.3,0,0.6,0,1.3s0,1,0,1.3v6.5h-1.4V502.8z"/>
</g>
</svg>
